<svg width="604" height="197" viewBox="0 0 604 197" fill="none" xmlns="http://www.w3.org/2000/svg" id="aera">
    <path d="M453.747 116.968L453.747 116.968L453.743 116.972C450.833 119.652 449.401 123.354 449.401 128.01C449.401 131.985 450.415 135.359 452.471 138.1C454.493 140.796 457.001 143.004 459.992 144.723L459.992 144.724L460 144.728C462.954 146.353 466.931 148.23 471.925 150.36L471.926 150.36C477.269 152.629 481.537 154.709 484.737 156.601L484.737 156.601L484.744 156.605C487.904 158.4 490.562 160.842 492.721 163.936L492.721 163.936L492.729 163.947C494.926 166.923 496.041 170.699 496.041 175.31C496.041 179.318 494.934 182.844 492.726 185.908L492.721 185.914C490.578 188.986 487.609 191.388 483.795 193.115C479.981 194.842 475.69 195.71 470.911 195.71C466.694 195.71 462.663 195.274 458.816 194.403C455.039 193.477 450.833 192.059 446.199 190.147L445.011 172.873C445.013 172.51 445.066 172.312 445.115 172.222C445.129 172.197 445.139 172.186 445.143 172.183C445.147 172.182 445.155 172.18 445.171 172.18H445.172C445.185 172.18 445.222 172.18 445.293 172.26C445.373 172.35 445.471 172.518 445.568 172.8C446.983 179.775 450.116 185.16 454.986 188.906C459.845 192.644 465.49 194.51 471.901 194.51C477.705 194.51 482.446 193.058 486.077 190.108L486.081 190.104C489.724 187.068 491.541 183 491.541 177.95C491.541 174.116 490.487 170.85 488.357 168.184C486.334 165.488 483.788 163.318 480.724 161.673C477.766 159.973 473.824 158.095 468.904 156.039C463.488 153.77 459.185 151.69 455.986 149.8C452.819 147.928 450.119 145.482 447.885 142.455C445.684 139.401 444.571 135.659 444.571 131.2C444.571 127.562 445.604 124.29 447.669 121.369L447.67 121.369L447.673 121.364C449.746 118.362 452.572 115.997 456.168 114.271C459.764 112.545 463.649 111.68 467.831 111.68C471.461 111.68 474.979 112.079 478.387 112.877L478.387 112.877L478.399 112.88C481.805 113.589 485.601 114.751 489.789 116.369L490.651 132.313C490.65 132.644 490.606 132.821 490.567 132.9H490.491C490.439 132.9 490.411 132.887 490.377 132.854C490.333 132.81 490.269 132.713 490.21 132.521C489.681 129.077 488.33 125.861 486.166 122.877C483.99 119.875 481.141 117.478 477.629 115.685C474.105 113.885 470.176 112.99 465.851 112.99C460.779 112.99 456.724 114.297 453.747 116.968ZM445.141 172.184C445.141 172.184 445.141 172.183 445.142 172.183L445.141 172.184Z" stroke="white"/>
    <path d="M378.065 112.669L378.065 112.669L378.076 112.67C381.894 112.817 385.494 112.89 388.875 112.89H416.595C420.268 112.89 424.161 112.817 428.273 112.67L428.273 112.67L428.282 112.669C429.488 112.602 430.883 112.566 432.467 112.561L434.795 123.881V124.05C434.795 124.231 434.756 124.375 434.688 124.495C434.648 124.524 434.599 124.54 434.525 124.54H434.415C433.943 124.54 433.741 124.402 433.641 124.245C432.091 121.222 430.483 118.966 428.806 117.515C427.182 116.048 425.037 115.1 422.406 114.648C419.79 114.126 415.939 113.87 410.875 113.87H407.025H406.555L406.526 114.338C406.231 118.978 406.085 130.583 406.085 149.13C406.085 161.745 406.158 173.994 406.305 185.876L406.305 185.878C406.342 188.318 406.84 190.297 407.851 191.764C408.858 193.225 410.34 194.127 412.247 194.488L412.245 194.499V194.5H394.148C394.15 194.5 394.151 194.499 394.153 194.499C396.089 194.146 397.592 193.24 398.609 191.764C399.62 190.297 400.117 188.318 400.155 185.878L400.155 185.876C400.301 173.994 400.375 161.745 400.375 149.13C400.375 130.583 400.228 118.978 399.934 114.338L399.904 113.87H399.435H395.475C390.483 113.87 386.669 114.126 384.053 114.648C381.42 115.101 379.243 116.048 377.549 117.511C375.941 118.889 374.368 121.076 372.816 124.029C372.612 124.383 372.338 124.54 371.935 124.54C371.799 124.54 371.678 124.499 371.56 124.395C371.522 124.315 371.496 124.176 371.545 123.929C371.545 123.929 371.545 123.929 371.545 123.928L373.882 112.56C375.508 112.564 376.902 112.601 378.065 112.669Z" stroke="white"/>
    <path d="M294.077 113H312.027C310.165 113.351 308.702 114.206 307.683 115.585C306.67 116.955 306.131 118.795 306.018 121.055L306.017 121.063L306.017 121.071C305.871 128.994 305.797 136.733 305.797 144.29V144.78L306.287 144.79C313.478 144.937 322.722 145.01 334.017 145.01C342.523 145.01 348.213 144.973 351.08 144.9L351.567 144.887V144.4C351.567 136.77 351.494 128.994 351.347 121.071L351.347 121.063L351.347 121.055C351.234 118.795 350.694 116.955 349.682 115.585C348.663 114.206 347.199 113.351 345.337 113H363.287C361.425 113.351 359.962 114.206 358.943 115.585C357.93 116.955 357.391 118.795 357.278 121.055L357.277 121.064L357.277 121.073C357.131 131.635 357.057 142.418 357.057 153.42C357.057 164.274 357.131 175.129 357.277 185.983C357.278 188.388 357.756 190.343 358.77 191.794C359.791 193.256 361.316 194.149 363.287 194.5H345.338C347.309 194.149 348.833 193.256 349.855 191.794C350.868 190.343 351.347 188.388 351.347 185.984C351.494 176.596 351.567 167.281 351.567 158.04V146.38V145.9L351.087 145.88C345.577 145.66 337.833 145.55 327.857 145.55C317.883 145.55 310.686 145.66 306.272 145.881L305.797 145.904V146.38V158.04C305.797 167.281 305.871 176.596 306.017 185.984C306.018 188.388 306.496 190.343 307.51 191.794C308.531 193.256 310.056 194.149 312.027 194.5H294.078C296.049 194.149 297.573 193.256 298.595 191.794C299.608 190.344 300.086 188.39 300.087 185.987C300.234 180.55 300.307 169.692 300.307 153.42C300.307 137.141 300.234 126.354 300.087 121.066L300.087 121.066L300.087 121.055C299.974 118.795 299.434 116.955 298.422 115.585C297.403 114.206 295.939 113.351 294.077 113Z" stroke="white"/>
    <path d="M216.335 132.213L216.336 132.21C219.083 125.899 223.029 121.051 228.181 117.691C233.334 114.33 239.446 112.66 246.494 112.66C255.554 112.66 262.621 114.094 267.643 117.016C272.69 119.88 276.094 124.655 277.883 131.274C277.932 131.415 277.989 131.481 278.034 131.515C278.078 131.548 278.15 131.58 278.284 131.58H278.496C278.497 131.579 278.499 131.579 278.501 131.578C278.515 131.571 278.546 131.551 278.591 131.506C278.61 131.487 278.664 131.416 278.664 131.2V131.009L276.838 115.108C271.566 113.901 267.107 112.976 263.457 112.332C259.752 111.678 255.565 111.35 250.894 111.35C241.422 111.35 233.253 113.099 226.37 116.576L226.368 116.577C219.561 119.981 214.356 124.898 210.74 131.335C207.123 137.773 205.304 145.422 205.304 154.3C205.304 162.957 207.05 170.423 210.52 176.715C214.063 182.931 219.157 187.739 225.819 191.143C232.555 194.475 240.542 196.15 249.794 196.15C253.862 196.15 257.669 195.678 261.216 194.737C264.792 193.788 267.77 192.77 270.157 191.685L270.162 191.682C272.569 190.621 275.637 189.109 279.368 187.144C279.299 186.853 279.244 186.48 279.196 186.04C279.126 185.389 279.068 184.54 279.022 183.5C278.93 181.417 278.884 178.539 278.884 174.87C278.884 170.391 278.958 166.205 279.105 162.311C279.105 162.311 279.105 162.311 279.105 162.311L279.604 162.33C279.722 159.141 279.888 157.022 280.101 155.973L216.335 132.213ZM216.335 132.213C213.662 138.449 212.334 145.816 212.334 154.3C212.334 162.579 213.961 169.777 217.234 175.876L217.236 175.881C220.582 181.978 225.309 186.668 231.408 189.941L231.414 189.944C237.585 193.141 244.817 194.73 253.094 194.73C255.865 194.73 258.919 194.243 262.253 193.28L262.253 193.28L262.263 193.277C265.601 192.239 268.438 190.898 270.764 189.248L270.847 189.188L270.901 189.101C271.347 188.371 271.71 187.318 272.007 185.978C272.307 184.632 272.547 182.96 272.732 180.97C273.174 176.918 273.394 172.611 273.394 168.05C273.394 165.679 273.065 163.82 272.346 162.535C271.696 161.242 270.636 160.353 269.202 159.876C267.817 159.414 265.867 159.194 263.385 159.19C263.38 159.185 263.374 159.179 263.368 159.172C263.359 159.162 263.349 159.15 263.339 159.137C263.298 158.99 263.274 158.809 263.274 158.59C263.274 158.306 263.314 158.16 263.344 158.1C270.365 157.827 275.78 157.174 279.564 156.127L216.335 132.213Z" stroke="white"/>
    <path d="M176.266 113H194.206C192.585 113.238 191.214 113.903 190.114 115C188.964 116.072 188.388 117.645 188.312 119.631L188.312 119.631L188.311 119.643C188.165 130.792 188.091 142.235 188.091 153.97C188.091 165.925 188.165 177.184 188.311 187.747H188.311L188.312 187.759C188.388 189.751 188.967 191.353 190.108 192.494C191.209 193.595 192.582 194.261 194.206 194.5H176.266C177.89 194.261 179.264 193.595 180.365 192.494C181.506 191.353 182.084 189.751 182.161 187.759L182.161 187.754C182.308 182.466 182.381 171.202 182.381 153.97C182.381 136.665 182.308 125.218 182.161 119.637L182.161 119.637L182.161 119.631C182.085 117.645 181.508 116.072 180.358 115C179.258 113.903 177.887 113.238 176.266 113Z" stroke="white"/>
    <path d="M115.542 113H133.493C131.536 113.384 130.014 114.222 128.989 115.549C127.967 116.872 127.483 118.622 127.482 120.747C127.335 132.188 127.262 144.216 127.262 156.83C127.262 176.184 127.409 188.265 127.703 193.051L127.729 193.471L128.147 193.517C130.814 193.813 134.465 193.96 139.092 193.96C145.484 193.96 150.31 193.484 153.536 192.509C156.783 191.549 159.096 190.381 160.366 188.952C161.575 187.592 163.136 185.244 165.045 181.94L165.046 181.938C165.251 181.579 165.527 181.42 165.932 181.42C166.08 181.42 166.133 181.463 166.176 181.527L166.204 181.569L166.239 181.604C166.315 181.68 166.37 181.791 166.322 182.032L166.321 182.038L163.977 194.5H115.542C117.485 194.148 118.983 193.23 119.983 191.73C120.973 190.244 121.441 188.239 121.442 185.767C121.662 178.355 121.772 168.892 121.772 157.38C121.772 143.811 121.662 131.598 121.442 120.741C121.404 118.584 120.911 116.819 119.911 115.498C118.905 114.171 117.431 113.349 115.542 113Z" stroke="white"/>
    <path d="M597.469 84.5C597.41 83.6656 597.354 82.1309 597.299 79.9251C597.225 77.0072 597.152 72.8708 597.079 67.5169C596.932 56.8078 596.859 45.8055 596.859 34.51C596.859 26.5137 596.932 18.5541 597.079 10.6311C597.079 10.631 597.079 10.6309 597.079 10.6307L597.579 10.64C597.652 6.53333 599.559 4.15 603.299 3.49L597.469 84.5ZM597.469 84.5H594.427C574.619 56.5085 558.165 33.8773 545.067 16.6078L544.188 15.4494L544.169 16.9032C544.022 27.7583 543.949 37.5873 543.949 46.39C543.949 55.266 544.022 64.9851 544.169 75.547L544.169 75.5539C544.244 78.2515 544.844 80.3897 546.036 81.8998L546.036 81.8999L546.044 81.9101C547.217 83.3169 548.711 84.1841 550.508 84.5M597.469 84.5H550.508M603.129 3H589.099C590.807 3.31271 592.223 4.09509 593.324 5.34832C594.537 6.5691 595.143 8.35658 595.218 10.6233L595.218 10.6267C595.365 16.1346 595.439 27.6914 595.439 45.29C595.439 59.4429 595.402 69.0531 595.328 74.1173L595.307 75.6213L594.424 74.4035L542.653 3H527.459V3.00155L527.457 3.00666C529.958 3.31259 532.184 3.98422 534.126 5.02977C536.107 6.09678 538.17 7.90659 540.319 10.425C540.768 10.9495 541.148 11.4422 541.455 11.9027C541.745 12.338 541.996 12.6965 542.209 12.98L542.304 13.1074L542.308 13.2665C542.455 18.701 542.529 29.2676 542.529 44.96C542.529 60.3582 542.455 70.5588 542.308 75.5543L603.129 3ZM603.129 3V3.00155L603.131 3.01211L603.129 3ZM550.508 84.5H536.079C537.817 84.1812 539.275 83.2672 540.441 81.7898C541.631 80.282 542.233 78.1825 542.308 75.5547L550.508 84.5Z" stroke="white"/>
    <path d="M523.317 82.579C524.781 83.3776 526.333 83.9703 527.972 84.3572C527.788 84.4757 527.677 84.5 527.626 84.5H519.706C517.074 84.5 514.985 83.4716 513.393 81.3958L513.393 81.3953L480.503 38.6053L480.353 38.41H480.106H477.796H477.296V38.91V50.68C477.296 60.6526 477.37 68.9415 477.516 75.5456C477.517 78.0908 477.993 80.151 479.002 81.6736C480.02 83.2105 481.546 84.1475 483.526 84.5H465.577C467.557 84.1475 469.083 83.2105 470.101 81.6736C471.109 80.1514 471.585 78.0917 471.586 75.5474C471.806 68.0612 471.916 58.1215 471.916 45.73C471.916 30.5556 471.77 19.294 471.476 11.95C471.475 9.40834 471.008 7.35113 470.021 5.8302C469.022 4.29278 467.524 3.35319 465.576 3H492.866C502.738 3 509.88 4.46623 514.378 7.32211L514.378 7.32218L514.386 7.32697C518.912 10.0851 521.186 14.3853 521.186 20.32C521.186 26.0109 518.747 30.4389 513.825 33.6498C508.877 36.8043 501.909 38.41 492.866 38.41H488.026H487.004L487.632 39.2171L517.332 77.3871L517.346 77.4056L517.362 77.4227C519.717 79.9251 521.702 81.6562 523.308 82.5741L523.308 82.5742L523.317 82.579ZM508.998 33.4858L509 33.4847C512.879 30.6706 514.816 26.7016 514.816 21.64C514.816 16.079 512.817 11.7097 508.796 8.59774C504.868 5.42667 499.539 3.87 492.866 3.87H478.236H477.758L477.737 4.3478C477.443 10.9598 477.296 21.7862 477.296 36.82V37.3164L477.793 37.32L492.861 37.43C492.861 37.43 492.862 37.43 492.862 37.43C499.809 37.5038 505.211 36.213 508.998 33.4858Z" stroke="white"/>
    <path d="M407.453 77.6492L407.453 77.6439C407.673 69.7169 407.783 58.3814 407.783 43.64C407.783 28.752 407.673 17.4164 407.453 9.63585L407.453 9.63585L407.452 9.63002C407.375 7.69917 406.753 6.13539 405.54 5.00039C404.444 3.90684 403.111 3.23901 401.556 3H447.795L450.123 14.3209V14.49C450.123 14.6712 450.084 14.8151 450.016 14.935C449.976 14.9639 449.927 14.98 449.853 14.98H449.743C449.269 14.98 449.068 14.8414 448.968 14.6831C447.344 11.5858 445.701 9.26001 444.029 7.74003C442.334 6.19931 440.048 5.14213 437.203 4.54233C434.431 3.8692 430.389 3.54 425.103 3.54C420.476 3.54 416.825 3.68673 414.158 3.98306L413.732 4.03031L413.713 4.4578C413.566 7.76897 413.419 17.6802 413.273 34.1756L413.269 34.6586L413.751 34.6795C417.134 34.8266 421.285 34.9 426.203 34.9C429.215 34.9 431.482 34.7902 432.987 34.5645L432.999 34.5627L433.011 34.5603C434.528 34.2568 435.731 33.7149 436.558 32.892C437.46 32.0674 438.113 30.7586 438.562 29.0433C438.651 28.7828 438.761 28.6311 438.867 28.5445C438.968 28.4618 439.1 28.41 439.293 28.41C439.441 28.41 439.494 28.4535 439.537 28.5174L439.564 28.5585L439.599 28.5936C439.732 28.7261 439.783 28.8579 439.783 29.01V41.44C439.783 41.5921 439.732 41.7239 439.599 41.8564L439.564 41.8915L439.537 41.9327C439.494 41.9966 439.441 42.04 439.293 42.04C439.1 42.04 438.968 41.9883 438.867 41.9055C438.761 41.8189 438.651 41.6672 438.562 41.4067C438.113 39.6915 437.46 38.3827 436.558 37.5581C435.725 36.7299 434.517 36.2267 432.999 35.9973C431.482 35.6955 429.209 35.55 426.203 35.55C421.285 35.55 417.134 35.6234 413.751 35.7705L413.273 35.7913V36.27C413.273 61.5647 413.419 77.1628 413.713 83.045L413.735 83.4848L414.174 83.5185C417.052 83.7399 420.696 83.85 425.103 83.85C432.885 83.85 438.725 83.4104 442.595 82.5172L442.595 82.5173L442.604 82.5151C446.427 81.5594 449.115 80.3607 450.541 78.8589C451.98 77.419 453.617 75.1026 455.455 71.9413L455.457 71.9381C455.662 71.579 455.937 71.42 456.343 71.42C456.491 71.42 456.544 71.4635 456.587 71.5274L456.614 71.5686L456.649 71.6036C456.726 71.6804 456.781 71.7912 456.733 72.0319L456.731 72.0376L454.388 84.5H401.552C403.109 84.1884 404.443 83.4844 405.54 82.3895C406.757 81.2507 407.376 79.6471 407.453 77.6492Z" stroke="white"/>
    <path d="M322.275 3H340.226C338.364 3.35072 336.9 4.20645 335.881 5.5853C334.868 6.95531 334.329 8.79459 334.216 11.055L334.216 11.0629L334.216 11.0707C334.069 18.9937 333.995 26.7334 333.995 34.29V34.7799L334.485 34.7899C341.677 34.9367 350.92 35.01 362.215 35.01C370.721 35.01 376.411 34.9734 379.278 34.8998L379.766 34.8873V34.4C379.766 26.7701 379.692 18.9937 379.545 11.0707L379.545 11.0629L379.545 11.055C379.432 8.79459 378.893 6.95531 377.88 5.5853C376.861 4.20645 375.397 3.35072 373.535 3H391.486C389.624 3.35072 388.16 4.20645 387.141 5.5853C386.128 6.95531 385.589 8.79459 385.476 11.055L385.476 11.064L385.476 11.0731C385.329 21.6355 385.255 32.4178 385.255 43.42C385.255 54.2745 385.329 65.1289 385.475 75.9834C385.476 78.388 385.954 80.3428 386.968 81.7939C387.989 83.2555 389.514 84.1493 391.485 84.5H373.536C375.507 84.1493 377.032 83.2555 378.053 81.7939C379.067 80.3429 379.545 78.3883 379.546 75.9839C379.692 66.596 379.766 57.2814 379.766 48.04V36.38V35.8996L379.285 35.8804C373.776 35.66 366.031 35.55 356.055 35.55C346.082 35.55 338.884 35.66 334.471 35.8806L333.995 35.9044V36.38V48.04C333.995 57.2814 334.069 66.596 334.215 75.9839C334.216 78.3883 334.694 80.3429 335.708 81.7939C336.729 83.2555 338.254 84.1493 340.225 84.5H322.276C324.247 84.1493 325.772 83.2555 326.793 81.7939C327.806 80.3435 328.285 78.3898 328.285 75.9868C328.432 70.55 328.505 59.6922 328.505 43.42C328.505 27.1413 328.432 16.3543 328.285 11.0661L328.285 11.0661L328.285 11.055C328.172 8.79459 327.633 6.95531 326.62 5.58531C325.601 4.20645 324.137 3.35072 322.275 3Z" stroke="white"/>
    <path d="M257.269 2.66919L257.269 2.6693L257.28 2.66969C261.099 2.81657 264.698 2.89005 268.079 2.89005H295.799C299.472 2.89005 303.365 2.81659 307.477 2.66974L307.477 2.66984L307.487 2.66929C308.693 2.60229 310.087 2.566 311.671 2.56073L313.999 13.8809V14.0501C313.999 14.2313 313.96 14.3752 313.892 14.4951C313.852 14.524 313.803 14.5401 313.729 14.5401H313.619C313.147 14.5401 312.945 14.4023 312.845 14.2448C311.295 11.2218 309.687 8.96557 308.01 7.51544C306.386 6.04751 304.241 5.10047 301.61 4.64841C298.994 4.12605 295.143 3.87005 290.079 3.87005H286.229H285.76L285.73 4.33837C285.435 8.97779 285.289 20.5827 285.289 39.1301C285.289 51.7453 285.362 63.9941 285.509 75.8762L285.509 75.8778C285.546 78.3178 286.044 80.2971 287.055 81.7638C288.062 83.2249 289.544 84.1273 291.452 84.4876L291.449 84.4985V84.5001H273.352C273.354 84.4996 273.355 84.4991 273.357 84.4986C275.293 84.1457 276.796 83.2399 277.813 81.7638C278.824 80.2971 279.321 78.3178 279.359 75.8778L279.359 75.8762C279.505 63.9941 279.579 51.7453 279.579 39.1301C279.579 20.5827 279.432 8.97779 279.138 4.33837L279.108 3.87005H278.639H274.679C269.687 3.87005 265.873 4.12611 263.258 4.64842C260.624 5.10078 258.447 6.04792 256.753 7.51103C255.146 8.88885 253.572 11.0755 252.021 14.0292C251.816 14.3832 251.542 14.5401 251.139 14.5401C251.003 14.5401 250.883 14.4991 250.764 14.3953C250.726 14.3154 250.7 14.1755 250.749 13.9294C250.749 13.929 250.749 13.9285 250.749 13.9281L253.086 2.56042C254.712 2.56435 256.106 2.60076 257.269 2.66919Z" stroke="white"/>
    <path d="M241.227 82.579C242.691 83.3776 244.243 83.9703 245.882 84.3572C245.698 84.4757 245.587 84.5 245.536 84.5H237.616C234.984 84.5 232.895 83.4716 231.303 81.3958L231.303 81.3953L198.413 38.6053L198.263 38.41H198.016H195.706H195.206V38.91V50.68C195.206 60.6526 195.28 68.9415 195.426 75.5456C195.427 78.0908 195.904 80.151 196.912 81.6736C197.93 83.2105 199.456 84.1475 201.436 84.5H183.487C185.467 84.1475 186.993 83.2105 188.011 81.6736C189.019 80.1514 189.496 78.0917 189.496 75.5474C189.716 68.0612 189.826 58.1215 189.826 45.73C189.826 30.5556 189.68 19.294 189.386 11.95C189.385 9.40834 188.918 7.35113 187.931 5.8302C186.932 4.29278 185.434 3.35319 183.487 3H210.776C220.648 3 227.79 4.46623 232.288 7.32211L232.288 7.32218L232.296 7.32697C236.822 10.0851 239.096 14.3853 239.096 20.32C239.096 26.0109 236.658 30.4389 231.736 33.6498C226.787 36.8043 219.819 38.41 210.776 38.41H205.936H204.914L205.542 39.2171L235.242 77.3871L235.256 77.4056L235.272 77.4227C237.628 79.9251 239.612 81.6562 241.218 82.5741L241.218 82.5742L241.227 82.579ZM226.909 33.4858L226.91 33.4847C230.789 30.6706 232.726 26.7016 232.726 21.64C232.726 16.079 230.727 11.7097 226.707 8.59774C222.778 5.42667 217.449 3.87 210.776 3.87H196.146H195.668L195.647 4.3478C195.353 10.9598 195.206 21.7862 195.206 36.82V37.3164L195.703 37.32L210.771 37.43C210.771 37.43 210.772 37.43 210.772 37.43C217.719 37.5038 223.121 36.213 226.909 33.4858Z" stroke="white"/>
    <path d="M99.8958 66.5456L99.8982 66.5498C103.237 72.3372 107.584 76.8734 112.941 80.1466L112.945 80.1492C118.305 83.3506 124.225 84.95 130.691 84.95C137.598 84.95 143.814 83.2405 149.325 79.8146L149.329 79.812C154.834 76.3156 159.111 71.5536 162.157 65.5369C165.276 59.4467 166.831 52.6577 166.831 45.18C166.831 44.2804 166.757 42.7981 166.61 40.7443L166.61 40.7443L166.609 40.7351C165.943 33.337 163.907 26.7381 160.493 20.9481C157.155 15.1622 152.808 10.6269 147.453 7.35416C142.166 4.0775 136.318 2.43996 129.921 2.43996C123.155 2.43996 117.01 4.2262 111.499 7.80048L111.497 7.80219C106.064 11.3742 101.79 16.2837 98.6741 22.5164L98.674 22.5163L98.6719 22.5206C95.629 28.755 94.1113 35.651 94.1113 43.2C94.1113 44.741 94.1477 45.9306 94.2228 46.76C94.7413 54.1565 96.6292 60.755 99.8958 66.5456ZM130.361 86.04C122.814 86.04 115.743 84.3355 109.143 80.9267C102.549 77.4483 97.2618 72.5235 93.2753 66.145C89.2973 59.7802 87.3013 52.3943 87.3013 43.97C87.3013 35.4715 89.2977 28.0114 93.2766 21.5728C97.2645 15.1197 102.516 10.159 109.036 6.68169C115.635 3.20077 122.741 1.45996 130.361 1.45996C137.982 1.45996 145.088 3.20094 151.688 6.68221C158.281 10.1599 163.569 15.1207 167.556 21.5728C171.535 28.0114 173.531 35.4715 173.531 43.97C173.531 52.3943 171.535 59.7802 167.557 66.145C163.571 72.5235 158.284 77.4484 151.69 80.9267C145.09 84.3351 137.983 86.04 130.361 86.04Z" stroke="white"/>
    <path d="M71.2088 84.5C71.1502 83.6656 71.0944 82.1309 71.0389 79.9251C70.9655 77.0072 70.8922 72.8708 70.8188 67.5169C70.6721 56.8078 70.5988 45.8055 70.5988 34.51C70.5988 26.5137 70.6721 18.5541 70.8188 10.6311C70.8188 10.631 70.8188 10.6309 70.8188 10.6307L71.3188 10.64C71.3921 6.53333 73.2988 4.15 77.0388 3.49L71.2088 84.5ZM71.2088 84.5H68.1675C48.3593 56.5085 31.9055 33.8773 18.8071 16.6078L17.9285 15.4494L17.9088 16.9032C17.7621 27.7583 17.6888 37.5873 17.6888 46.39C17.6888 55.266 17.7621 64.9851 17.9088 75.547L17.909 75.5539C17.9839 78.2515 18.5841 80.3897 19.7763 81.8998L19.7762 81.8999L19.7846 81.9101C20.957 83.3169 22.4509 84.1841 24.2482 84.5M71.2088 84.5H24.2482M76.8688 3H62.8388C64.5468 3.31271 65.9628 4.09509 67.0641 5.34832C68.2773 6.5691 68.8829 8.35658 68.9585 10.6233L68.9586 10.6267C69.1055 16.1346 69.1788 27.6914 69.1788 45.29C69.1788 59.4429 69.1421 69.0531 69.0687 74.1173L69.0469 75.6213L68.164 74.4035L16.3937 3H1.19876V3.00155L1.19748 3.00666C3.69863 3.3126 5.92408 3.98422 7.86581 5.02977C9.84741 6.09678 11.9106 7.90659 14.0588 10.425C14.5083 10.9495 14.8878 11.4422 15.1948 11.9027C15.485 12.338 15.7361 12.6965 15.9488 12.98L16.0443 13.1074L16.0486 13.2665C16.1955 18.701 16.2688 29.2676 16.2688 44.96C16.2688 60.3582 16.1955 70.5588 16.0486 75.5543L76.8688 3ZM76.8688 3V3.00155L76.8714 3.01211L76.8688 3ZM24.2482 84.5H9.81881C11.5576 84.1812 13.0149 83.2672 14.1812 81.7898C15.3716 80.282 15.9734 78.1825 16.0485 75.5547L24.2482 84.5Z" stroke="white"/>
    </svg>
